# xmcd CD database file
#
# Track frame offsets:
#	150
#	17090
#	35001
#	63527
#	90828
#	105494
#	125639
#	142864
#	158632
#	182079
#	206092
#	223884
#	241945
#	262979
#	281108
#	297463
#	317496
#
# Disc length: 4385 seconds
#
# Revision: 0
# Processed by: cddbd v1.5.2PL0 Copyright (c) Steve Scherf et al.
# Submitted via: CDex 1.51
#
DISCID=f9111f11
DTITLE=Various Artist - Universal Jazz 1999
DYEAR=1900
DGENRE=Jazz
TTITLE0=The Supremes and The Four Tops - Love The One You're With
TTITLE1=Michael Naura - Take Us Down To The River
TTITLE2=Barbara Dennerlein - Bloody Mary
TTITLE3=Michael Brecker - Sound Of
TTITLE4=Teri Thornton - It Ain't Necessarily So
TTITLE5=Diana Krall - Popsicle Toes
TTITLE6=Götz Alsmann - Zuckersüß
TTITLE7=Terry Callier - Love Can Do
TTITLE8=Innerzone Orchestra - People Make The World Go Round
TTITLE9=Wibutee - Newborn Thing
TTITLE10=Krust - Re-Arrange
TTITLE11=Incognito - It Ain't Easy
TTITLE12=United Future Organisation Feat.  Dee Dee Bridgewater - Flying Saucer
TTITLE13=Space Jazz Dub Men - It Don't Mean A Thing
TTITLE14=Phillippe Saisse - La Vie
TTITLE15=Elefteria Arvanitaki - Pame Xana Sta Thavmata
TTITLE16=Luis Frank Y Sus Traditional Habana - Last Christmas
EXTD=
EXTT0=
EXTT1=
EXTT2=
EXTT3=
EXTT4=
EXTT5=
EXTT6=
EXTT7=
EXTT8=
EXTT9=
EXTT10=
EXTT11=
EXTT12=
EXTT13=
EXTT14=
EXTT15=
EXTT16=
PLAYORDER=
